<svg width="50" height="50" viewBox="0 0 50 50" fill="none" xmlns="http://www.w3.org/2000/svg">
<g clip-path="url(#clip0)">
<path d="M18.7499 20.8333C13.0061 20.8333 8.33319 16.1604 8.33319 10.4167C8.33319 4.67292 13.0061 0 18.7499 0C24.4936 0 29.1665 4.67292 29.1665 10.4167C29.1665 16.1604 24.4936 20.8333 18.7499 20.8333Z" fill="#CFD8DC"/>
<path d="M36.4583 43.75H1.04167C0.466667 43.75 0 43.2833 0 42.7083V34.375C0 29.2062 4.20625 25 9.375 25H28.125C33.2937 25 37.5 29.2062 37.5 34.375V42.7083C37.5 43.2833 37.0333 43.75 36.4583 43.75Z" fill="#CFD8DC"/>
<path d="M18.7499 0C13.0061 0 8.33319 4.67292 8.33319 10.4167C8.33319 16.1604 13.0061 20.8333 18.7499 20.8333V0Z" fill="#B4BCC0"/>
<path d="M18.75 25H9.375C4.20625 25 0 29.2062 0 34.375V42.7083C0 43.2833 0.466667 43.75 1.04167 43.75H18.75V25Z" fill="#B4BCC0"/>
<path d="M37.5 25L50 30.2083L37.5 35.4167L25 30.2083L37.5 25Z" fill="#2196F3"/>
<path d="M25 30.2083L37.5 35.4166V49.9999L25 44.7916V30.2083Z" fill="#64B5F6"/>
<path d="M37.5 49.9999L50 44.7916V30.2083L37.5 35.4166V49.9999Z" fill="#42A5F5"/>
<path d="M37.5 25L25 30.2083L37.5 35.4167V25Z" fill="#1D83D4"/>
<path d="M25 30.2083V44.7916L37.5 49.9999V35.4166L25 30.2083Z" fill="#579ED6"/>
</g>
<defs>
<clipPath id="clip0">
<rect width="50" height="50" fill="white"/>
</clipPath>
</defs>
</svg>
