<svg width="50" height="50" viewBox="0 0 50 50" fill="none" xmlns="http://www.w3.org/2000/svg">
<g clip-path="url(#clip0)">
<path d="M48.4375 49.9999H4.6875C2.10417 49.9999 0 47.8978 0 45.3124C0 42.727 2.10417 40.6249 4.6875 40.6249H45.3125C46.1729 40.6249 46.875 39.9249 46.875 39.0624C46.875 38.1999 46.1729 37.4999 45.3125 37.4999H19.0917C17.6125 37.4999 16.2896 36.6166 15.725 35.2499C15.1583 33.8811 15.4688 32.3228 16.5146 31.277L17.9062 29.8853C18.5167 29.2749 19.5063 29.2749 20.1167 29.8853C20.7271 30.4957 20.7271 31.4853 20.1167 32.0957L18.725 33.4874C18.3937 33.8165 18.6229 34.3749 19.0917 34.3749H45.3125C47.8958 34.3749 50 36.477 50 39.0624C50 41.6478 47.8958 43.7499 45.3125 43.7499H4.6875C3.82708 43.7499 3.125 44.4499 3.125 45.3124C3.125 46.1749 3.82708 46.8749 4.6875 46.8749H48.4375C49.3 46.8749 50 47.5749 50 48.4374C50 49.2999 49.3 49.9999 48.4375 49.9999Z" fill="#CFD8DC"/>
<path d="M25 40.6249H4.6875C2.10417 40.6249 0 42.727 0 45.3124C0 47.8978 2.10417 49.9999 4.6875 49.9999H25V46.8749H4.6875C3.82708 46.8749 3.125 46.1749 3.125 45.3124C3.125 44.4499 3.82708 43.7499 4.6875 43.7499H25V40.6249ZM19.0104 29.427C18.6104 29.427 18.2104 29.5791 17.9062 29.8853L16.5146 31.277C15.4688 32.3228 15.1583 33.8833 15.725 35.2499C16.2896 36.6166 17.6125 37.4999 19.0917 37.4999H25V34.3749H19.0917C18.6229 34.3749 18.3938 33.8166 18.7229 33.4853L20.1146 32.0937C20.725 31.4833 20.725 30.4937 20.1146 29.8833C19.8104 29.5791 19.4104 29.427 19.0104 29.427Z" fill="#B4BCC0"/>
<path d="M48.9375 2.625L47.375 1.0625C46 -0.3125 43.5833 -0.3125 42.2083 1.0625L17.8958 25.375C16.075 27.1958 16.0416 30.2062 17.8958 32.1042C19.7958 33.9625 22.8083 33.9208 24.625 32.1042L48.9375 7.79167C50.3479 6.37917 50.3604 4.04792 48.9375 2.625Z" fill="#2196F3"/>
<path d="M27.9167 28.8334L25.7083 31.0417L18.9792 24.3126L19.0417 24.2501L21.125 22.1667L21.1875 22.1042L27.9167 28.8334Z" fill="#64B5F6"/>
<path d="M47.1875 9.5625L44.9792 11.7708L38.25 5.04167L37.3542 4.14583C37.1459 3.9375 36.8125 3.9375 36.6063 4.14583L28.7104 12.0417C28.1063 12.6458 27.1042 12.6458 26.5 12.0417C25.8959 11.4375 25.8959 10.4375 26.5 9.83333L34.3959 1.9375C35.8146 0.5 38.1459 0.5 39.5625 1.9375L40.4584 2.83333L47.1875 9.5625Z" fill="#64B5F6"/>
<path d="M38.2395 5.03125L17.8958 25.375C16.075 27.1958 16.0416 30.2063 17.8958 32.1042L22.3562 27.6875L18.9812 24.3125L19.0416 24.25L21.125 22.1667L21.1875 22.1042L24.575 25.4896L41.7208 8.51042L38.25 5.04167L38.2395 5.03125ZM44.7916 0.03125C43.8437 0.03125 42.8958 0.375 42.2083 1.0625L40.4479 2.82292L40.4583 2.83333L43.9375 6.3125L48.302 1.98958L47.375 1.0625C46.6875 0.375 45.7395 0.03125 44.7916 0.03125Z" fill="#1D83D4"/>
<path d="M21.1875 22.104L21.125 22.1665L19.0417 24.2498L18.9792 24.3123L22.3542 27.6873L24.575 25.4894L21.1875 22.104Z" fill="#579ED6"/>
<path d="M36.9792 0.860352C36.0417 0.860352 35.1042 1.21868 34.3959 1.93744L26.5001 9.83327C25.8959 10.4374 25.8959 11.4374 26.5001 12.0416C26.8021 12.3437 27.2042 12.4958 27.6042 12.4958C28.0063 12.4958 28.4063 12.3437 28.7084 12.0416L36.6042 4.14577C36.7084 4.0416 36.8438 3.98952 36.9792 3.98952C37.1146 3.98952 37.2501 4.0416 37.3542 4.14577L38.2396 5.0291L38.2501 5.0416L41.7188 8.51035L43.9375 6.31244L40.4584 2.83327L40.448 2.82285L39.5626 1.93744C38.8542 1.21868 37.9167 0.860352 36.9792 0.860352Z" fill="#579ED6"/>
</g>
<defs>
<clipPath id="clip0">
<rect width="50" height="50" fill="white"/>
</clipPath>
</defs>
</svg>
