<svg width="50" height="50" viewBox="0 0 50 50" fill="none" xmlns="http://www.w3.org/2000/svg">
<path d="M42.1552 4.31897C39.3362 1.74138 35.6983 0.991379 32.0172 0.517241C29.1162 0.172657 26.1973 -5.83128e-05 23.2759 1.47683e-08V0.0086207C22.9914 1.44516e-08 22.7069 1.47683e-08 22.4138 1.47683e-08C11.4655 1.47683e-08 2.58621 4.24138 2.58621 9.48276V23.2759C2.58621 25.2586 3.85345 27.1034 6.03449 28.6207C6.58592 29.0055 7.16185 29.3539 7.75863 29.6638C8.86697 30.2343 10.0203 30.7129 11.2069 31.0948C11.7586 31.2759 12.3362 31.4483 12.931 31.6034C14.3491 31.9669 15.7888 32.2404 17.2414 32.4224C17.6293 32.4741 18.0259 32.5172 18.431 32.5603C16.7241 33.8103 15.1207 34.9569 13.7155 35.9569C11.6466 37.4224 10 38.5603 9.03449 39.2241C8.81217 39.3801 8.67631 39.6316 8.66783 39.903C8.65935 40.1744 8.77924 40.434 8.99138 40.6034L20.5 49.8103C20.8062 50.0509 21.2341 50.0614 21.5517 49.8362C23.4138 48.4828 25.25 47.0632 27.0603 45.5776C28.6121 44.3132 30.1293 43.0029 31.6121 41.6466C32.0431 41.2586 32.4655 40.8707 32.8879 40.4741C34.0948 39.3448 35.2672 38.1925 36.4052 37.0172C36.8103 36.6121 37.2155 36.1897 37.5948 35.7759C38.5 34.8276 39.3736 33.8678 40.2155 32.8965C40.4138 32.6638 40.6207 32.431 40.819 32.1983C41.1983 31.7672 41.5776 31.319 41.9483 30.8707C42.9457 29.6961 43.8616 28.4547 44.6897 27.1552C45.0345 26.6207 45.3448 26.0776 45.6379 25.5172C46.3986 24.0772 46.906 22.5172 47.1379 20.9052C47.8966 15.2672 46.5 8.28448 42.1552 4.31897Z" fill="#4C9CDC"/>
<path d="M22 4L21.5 14C16.1552 13.819 12.069 11.5517 12.069 9.05171C12.069 6.44826 16.3362 4.03448 22 4Z" fill="#2980BA"/>
<path d="M32.75 9.22416C32.7388 9.51961 32.6684 9.80981 32.5431 10.0776C31.8362 11.5604 30.1748 12.3167 28.5 13C26.8252 13.6833 26 14 21.5 14L22 4C25.5 4 27.5 4 30.069 5.4052C31.7236 6.31027 32.819 7.68106 32.75 9.22416Z" fill="#2980BA"/>
<path d="M41.9483 11.1035C41.7343 11.6839 41.4319 12.2277 41.0517 12.7156C41.4027 12.2089 41.703 11.669 41.9483 11.1035Z" fill="#F3D55B"/>
<path d="M41.0345 12.7413C37.5345 17.974 27.1466 26.1551 18.9655 32.1637C18.7845 32.3016 18.6121 32.4309 18.431 32.5603C18.0259 32.5172 17.6293 32.474 17.2414 32.4223C15.7888 32.2404 14.3491 31.9668 12.931 31.6034C12.3362 31.4482 11.7586 31.2758 11.2069 31.0947C10.0203 30.7129 8.86697 30.2342 7.75863 29.6637C7.16185 29.3538 6.58592 29.0054 6.03449 28.6206C3.85345 27.1034 2.58621 25.2585 2.58621 23.2758V9.48267C2.58621 14.724 11.4655 18.9654 22.4138 18.9654C30.9655 18.9654 38.2586 16.3792 41.0345 12.7413Z" fill="#1D83D4"/>
<path d="M47.1379 20.9052C46.906 22.5172 46.3986 24.0772 45.6379 25.5172C45.3448 26.0776 45.0345 26.6207 44.6897 27.1552C43.8616 28.4547 42.9457 29.6961 41.9483 30.8707C41.5776 31.319 41.1983 31.7672 40.819 32.1983C40.6207 32.431 40.4138 32.6638 40.2155 32.8966C39.3707 33.8736 38.4971 34.8333 37.5948 35.7759C37.2155 36.1897 36.8103 36.6121 36.4052 37.0172C35.2672 38.1897 34.0948 39.342 32.8879 40.4741C32.4655 40.8707 32.0431 41.2586 31.6121 41.6466C30.1293 43 28.6121 44.3103 27.0603 45.5776C25.8103 44.4483 26.5948 43.1466 25.0345 42.0259C23.3707 40.819 22.3621 42.2241 20.6983 41.0172C19.0345 39.8103 20.0345 38.4138 18.3707 37.2069C16.5948 35.9397 15.5776 37.5948 13.7155 35.9569C15.1207 34.9569 16.7241 33.8103 18.431 32.5603C26.6897 26.5172 37.4569 18.0862 41.0345 12.7414C41.0431 12.7328 41.0517 12.7241 41.0517 12.7155C41.4319 12.2276 41.7343 11.6838 41.9483 11.1034C41.9674 11.0361 41.9904 10.9699 42.0172 10.9052C42.2049 10.4559 42.2818 9.96801 42.2414 9.48276C42.2414 4.37931 33.8276 0.224138 23.2759 0.0086207V1.47683e-08C26.1973 -5.83128e-05 29.1162 0.172657 32.0172 0.517241C35.6983 0.991379 39.3362 1.74138 42.1552 4.31897C46.5 8.28448 47.8966 15.2672 47.1379 20.9052Z" fill="#55ABF0"/>
<path d="M27.0604 45.5775C25.25 47.0602 23.4138 48.4798 21.5517 49.8361C21.2341 50.0613 20.8062 50.0508 20.5 49.8102L8.99138 40.6033C8.77923 40.4338 8.65934 40.1743 8.66783 39.9029C8.67631 39.6315 8.81217 39.3799 9.03449 39.224C10 38.5602 11.6466 37.4223 13.7155 35.9568C15.5776 37.5947 16.5948 35.9395 18.3707 37.2068C20.0345 38.4137 19.0259 39.8102 20.6983 41.0171C22.3707 42.224 23.3707 40.8189 25.0345 42.0258C26.5948 43.1464 25.8104 44.4482 27.0604 45.5775Z" fill="#CFD8DC"/>
<path d="M32.7414 9.21558C32.7454 9.21868 32.7477 9.22345 32.7477 9.22851C32.7477 9.23356 32.7454 9.23834 32.7414 9.24144" fill="#F3D55B"/>
<path d="M7.75862 23.2759V29.6638C7.16185 29.354 6.58592 29.0055 6.03448 28.6207V23.2759C6.03448 22.7998 6.42045 22.4138 6.89655 22.4138C7.37266 22.4138 7.75862 22.7998 7.75862 23.2759Z" fill="#CFD8DC"/>
<path d="M12.9311 25.8621V31.6034C12.3362 31.4483 11.7586 31.2759 11.2069 31.0948V25.8621C11.2069 25.386 11.5929 25 12.069 25C12.5451 25 12.9311 25.386 12.9311 25.8621Z" fill="#CFD8DC"/>
<path d="M18.9655 26.7241V32.1638C18.7845 32.3017 18.6121 32.431 18.431 32.5603C18.0259 32.5172 17.6293 32.4741 17.2414 32.4224V26.7241C17.2414 26.248 17.6273 25.8621 18.1034 25.8621C18.5796 25.8621 18.9655 26.248 18.9655 26.7241Z" fill="#CFD8DC"/>
<path d="M32.8879 40.4741C32.4655 40.8706 32.0431 41.2586 31.6121 41.6465L27.0258 37.7241C26.7918 37.5239 26.6823 37.214 26.7386 36.9112C26.795 36.6084 27.0086 36.3587 27.299 36.2561C27.5894 36.1534 27.9125 36.2135 28.1465 36.4137L32.8879 40.4741Z" fill="#DEDEDE"/>
<path d="M37.5948 35.7758C37.2155 36.1896 36.8104 36.6121 36.4052 37.0172L32.1983 33.4138C31.9642 33.2136 31.8547 32.9037 31.9111 32.6009C31.9674 32.2981 32.181 32.0484 32.4714 31.9458C32.7618 31.8431 33.0849 31.9032 33.319 32.1034L37.5948 35.7758Z" fill="#DEDEDE"/>
<path d="M41.9483 30.8707C41.5776 31.319 41.1983 31.7672 40.819 32.1983L37.6811 28.6121C37.3916 28.2526 37.4365 27.729 37.7829 27.4241C38.1294 27.1193 38.6545 27.1413 38.9741 27.4741L41.9483 30.8707Z" fill="#DEDEDE"/>
<path d="M45.6379 25.5172C45.3448 26.0776 45.0345 26.6207 44.6897 27.1552L42.4396 23.9914C42.2277 23.7439 42.1734 23.398 42.2994 23.0975C42.4254 22.7969 42.71 22.5931 43.0351 22.5707C43.3602 22.5482 43.6701 22.711 43.8362 22.9914L45.6379 25.5172Z" fill="#DEDEDE"/>
</svg>
