<svg width="50" height="50" viewBox="0 0 50 50" fill="none" xmlns="http://www.w3.org/2000/svg">
<g clip-path="url(#clip0)">
<path d="M20.8496 0L41.6992 8.69141L20.8496 17.3828L0 8.69141L20.8496 0Z" fill="#2196F3"/>
<path d="M20.8984 41.6992L41.7969 33.013V8.69141L20.8984 17.3777V41.6992Z" fill="#42A5F5"/>
<path d="M20.8984 0L0 8.69141L20.8984 17.3828V0Z" fill="#1D83D4"/>
<path d="M0 8.69141V33.013L20.8984 41.6992V17.3777L0 8.69141Z" fill="#579ED6"/>
<path d="M36.4583 22.9167C28.9917 22.9167 22.9167 28.9918 22.9167 36.4584C22.9167 43.9251 28.9917 50.0001 36.4583 50.0001C43.925 50.0001 50 43.9251 50 36.4584C50 28.9918 43.925 22.9167 36.4583 22.9167Z" fill="#CFD8DC"/>
<path d="M41.0562 41.0563C40.2417 41.8709 38.925 41.8709 38.1104 41.0563L34.9854 37.9313C34.5937 37.5418 34.375 37.0126 34.375 36.4584V31.2501C34.375 30.098 35.3083 29.1667 36.4583 29.1667C37.6083 29.1667 38.5417 30.098 38.5417 31.2501V35.5959L41.0562 38.1105C41.8708 38.9251 41.8708 40.2418 41.0562 41.0563Z" fill="white"/>
<path d="M36.4583 22.9167C28.9917 22.9167 22.9167 28.9918 22.9167 36.4584C22.9167 43.9251 28.9917 50.0001 36.4583 50.0001V39.4043L34.9854 37.9313C34.5937 37.5418 34.375 37.0126 34.375 36.4584V31.2501C34.375 30.098 35.3083 29.1668 36.4583 29.1668V22.9167Z" fill="#B4BCC0"/>
<path d="M36.4583 29.1667C35.3083 29.1667 34.375 30.098 34.375 31.2501V36.4584C34.375 37.0126 34.5937 37.5417 34.9854 37.9313L36.4583 39.4042V29.1667Z" fill="#DEDEDE"/>
</g>
<defs>
<clipPath id="clip0">
<rect width="50" height="50" fill="white"/>
</clipPath>
</defs>
</svg>
