<svg width="50" height="50" viewBox="0 0 50 50" fill="none" xmlns="http://www.w3.org/2000/svg">
<g clip-path="url(#clip0)">
<path d="M27.0833 8.33325L41.6667 14.5833L27.0833 20.8332L12.5 14.5833L27.0833 8.33325Z" fill="#2196F3"/>
<path d="M12.5 14.5833L27.0833 20.8333V37.4999L12.5 31.2499V14.5833Z" fill="#64B5F6"/>
<path d="M27.0833 37.4999L41.6666 31.2499V14.5833L27.0833 20.8333V37.4999Z" fill="#42A5F5"/>
<path d="M27.0833 8.33325L12.5 14.5833L27.0833 20.8332V8.33325Z" fill="#1D83D4"/>
<path d="M12.5 14.5833V31.2499L27.0833 37.4999V20.8333L12.5 14.5833Z" fill="#579ED6"/>
<path d="M12.0403 5.14605L7.3528 0.458545C6.74238 -0.151872 5.7528 -0.151872 5.14238 0.458545L0.456966 5.14605C-0.526367 6.12521 0.167383 7.81271 1.56113 7.81271H4.1653V47.9169C4.1653 49.0669 5.09655 50.0002 6.24863 50.0002C7.40072 50.0002 8.33197 49.0669 8.33197 47.9169V7.81271H10.9361C12.3299 7.81271 13.0236 6.12521 12.0403 5.14605Z" fill="#CFD8DC"/>
<path d="M6.24863 0C5.84863 0 5.44863 0.152083 5.14447 0.458333L0.456967 5.14583C-0.526367 6.125 0.167383 7.8125 1.56113 7.8125H4.1653V47.9167C4.1653 49.0667 5.09655 50 6.24863 50V0Z" fill="#B4BCC0"/>
<path d="M49.5417 42.6458L44.8542 37.9583C43.8688 36.9729 42.1875 37.6749 42.1875 39.0624V41.6666H2.08333C0.93125 41.6666 0 42.5999 0 43.7499C0 44.8999 0.93125 45.8333 2.08333 45.8333H42.1875V48.4374C42.1875 49.8312 43.8792 50.5187 44.8542 49.5416L49.5417 44.8541C50.1521 44.2437 50.1521 43.2562 49.5417 42.6458Z" fill="#CFD8DC"/>
<path d="M50 43.75H0C0 44.9 0.93125 45.8333 2.08333 45.8333H42.1875V48.4375C42.1875 49.3792 42.9604 50 43.7646 50C44.1479 50 44.5396 49.8583 44.8562 49.5417L49.5437 44.8542C49.8479 44.55 50 44.15 50 43.75Z" fill="#B4BCC0"/>
</g>
<defs>
<clipPath id="clip0">
<rect width="50" height="50" fill="white"/>
</clipPath>
</defs>
</svg>
